{
  "accessors": [
    {
      "bufferView": 2,
      "componentType": 5126,
      "count": 504,
      "max": [
        1.7975306510925293,
        1.1366348266601563,
        0.9838641881942749
      ],
      "min": [
        -1.7975306510925293,
        -1.1948771476745605,
        -2.8659164905548096
      ],
      "type": "VEC3"
    },
    {
      "bufferView": 2,
      "byteOffset": 6048,
      "componentType": 5126,
      "count": 504,
      "max": [
        0.9823102355003357,
        0.9733151197433472,
        0.9620262980461121
      ],
      "min": [
        -0.9823102355003357,
        -0.8224141001701355,
        -0.976104736328125
      ],
      "type": "VEC3"
    },
    {
      "bufferView": 1,
      "componentType": 5126,
      "count": 504,
      "max": [
        0.75,
        0.8617359399795532
      ],
      "min": [
        0.0,
        0.0
      ],
      "type": "VEC2"
    },
    {
      "bufferView": 0,
      "componentType": 5125,
      "count": 708,
      "type": "SCALAR"
    },
    {
      "bufferView": 2,
      "byteOffset": 12096,
      "componentType": 5126,
      "count": 190,
      "max": [
        0.9148725867271423,
        0.23365381360054016,
        0.27845779061317444
      ],
      "min": [
        -0.9148725867271423,
        -1.4579896926879883,
        -3.0665805339813232
      ],
      "type": "VEC3"
    },
    {
      "bufferView": 2,
      "byteOffset": 14376,
      "componentType": 5126,
      "count": 190,
      "max": [
        0.9999998211860657,
        0.9999630451202393,
        0.984282374382019
      ],
      "min": [
        -0.9999998807907104,
        -0.9999628067016602,
        -1.0
      ],
      "type": "VEC3"
    },
    {
      "bufferView": 1,
      "byteOffset": 4032,
      "componentType": 5126,
      "count": 190,
      "max": [
        0.5744659900665283,
        0.875
      ],
      "min": [
        0.0,
        0.0
      ],
      "type": "VEC2"
    },
    {
      "bufferView": 0,
      "byteOffset": 2832,
      "componentType": 5125,
      "count": 222,
      "type": "SCALAR"
    },
    {
      "bufferView": 2,
      "byteOffset": 16656,
      "componentType": 5126,
      "count": 276,
      "max": [
        1.166844129562378,
        0.6523911356925964,
        0.6277706623077393
      ],
      "min": [
        -1.166844129562378,
        -1.1402394771575928,
        -2.812445640563965
      ],
      "type": "VEC3"
    },
    {
      "bufferView": 2,
      "byteOffset": 19968,
      "componentType": 5126,
      "count": 276,
      "max": [
        0.9665031433105469,
        0.08678783476352692,
        0.3854406476020813
      ],
      "min": [
        -0.9665031433105469,
        -0.9642729759216309,
        -0.9987913966178894
      ],
      "type": "VEC3"
    },
    {
      "bufferView": 1,
      "byteOffset": 5552,
      "componentType": 5126,
      "count": 276,
      "max": [
        0.6069718599319458,
        0.8750002384185791
      ],
      "min": [
        0.0,
        0.0
      ],
      "type": "VEC2"
    },
    {
      "bufferView": 0,
      "byteOffset": 3720,
      "componentType": 5125,
      "count": 384,
      "type": "SCALAR"
    }
  ],
  "asset": {
    "extras": {
      "author": "assetfactory (https://sketchfab.com/assetfactory)",
      "license": "SKETCHFAB Standard (https://sketchfab.com/licenses)",
      "source": "https://sketchfab.com/3d-models/lowpoly-origami-penguin-23627a7c3c6f4b8abf092aa505b14326",
      "title": "Lowpoly origami penguin"
    },
    "generator": "Sketchfab-16.33.0",
    "version": "2.0"
  },
  "bufferViews": [
    {
      "buffer": 0,
      "byteLength": 5256,
      "name": "floatBufferViews",
      "target": 34963
    },
    {
      "buffer": 0,
      "byteLength": 7760,
      "byteOffset": 5256,
      "byteStride": 8,
      "name": "floatBufferViews",
      "target": 34962
    },
    {
      "buffer": 0,
      "byteLength": 23280,
      "byteOffset": 13016,
      "byteStride": 12,
      "name": "floatBufferViews",
      "target": 34962
    }
  ],
  "buffers": [
    {
      "byteLength": 36296,
      "uri": "scene.bin"
    }
  ],
  "materials": [
    {
      "doubleSided": true,
      "name": "Black",
      "pbrMetallicRoughness": {
        "baseColorFactor": [
          0.00802319,
          0.00802319,
          0.00749903,
          1.0
        ],
        "metallicFactor": 0.0,
        "roughnessFactor": 0.998214422430724
      }
    },
    {
      "doubleSided": true,
      "name": "Orange",
      "pbrMetallicRoughness": {
        "baseColorFactor": [
          0.8,
          0.36361,
          0.053271,
          1.0
        ],
        "metallicFactor": 0.0,
        "roughnessFactor": 0.9029591133706845
      }
    },
    {
      "doubleSided": true,
      "name": "White",
      "pbrMetallicRoughness": {
        "baseColorFactor": [
          0.863157,
          0.83077,
          0.775822,
          1.0
        ],
        "metallicFactor": 0.0,
        "roughnessFactor": 0.813581644433688
      }
    }
  ],
  "meshes": [
    {
      "name": "Cube.002_Black_0",
      "primitives": [
        {
          "attributes": {
            "NORMAL": 1,
            "POSITION": 0,
            "TEXCOORD_0": 2
          },
          "indices": 3,
          "material": 0,
          "mode": 4
        }
      ]
    },
    {
      "name": "Cube.002_Orange_0",
      "primitives": [
        {
          "attributes": {
            "NORMAL": 5,
            "POSITION": 4,
            "TEXCOORD_0": 6
          },
          "indices": 7,
          "material": 1,
          "mode": 4
        }
      ]
    },
    {
      "name": "Cube.002_White_0",
      "primitives": [
        {
          "attributes": {
            "NORMAL": 9,
            "POSITION": 8,
            "TEXCOORD_0": 10
          },
          "indices": 11,
          "material": 2,
          "mode": 4
        }
      ]
    }
  ],
  "nodes": [
    {
      "children": [
        1
      ],
      "matrix": [
        1.0,
        0.0,
        0.0,
        0.0,
        0.0,
        2.220446049250313e-16,
        -1.0,
        0.0,
        0.0,
        1.0,
        2.220446049250313e-16,
        0.0,
        0.0,
        0.0,
        0.0,
        1.0
      ],
      "name": "Sketchfab_model"
    },
    {
      "children": [
        2
      ],
      "matrix": [
        0.009999999776482582,
        0.0,
        0.0,
        0.0,
        0.0,
        0.0,
        0.009999999776482582,
        0.0,
        0.0,
        -0.009999999776482582,
        0.0,
        0.0,
        0.0,
        0.0,
        0.0,
        1.0
      ],
      "name": "Origami_Penguin.fbx"
    },
    {
      "children": [
        3
      ],
      "name": "RootNode"
    },
    {
      "children": [
        4,
        5,
        6
      ],
      "matrix": [
        61.327850341796875,
        0.0,
        0.0,
        0.0,
        0.0,
        -9.991575043326107e-06,
        -61.327850341796065,
        0.0,
        0.0,
        61.327850341796065,
        -9.991575043326107e-06,
        0.0,
        0.0,
        188.24241638183594,
        0.0,
        1.0
      ],
      "name": "Cube.002"
    },
    {
      "mesh": 0,
      "name": "Cube.002_Black_0"
    },
    {
      "mesh": 1,
      "name": "Cube.002_Orange_0"
    },
    {
      "mesh": 2,
      "name": "Cube.002_White_0"
    }
  ],
  "scene": 0,
  "scenes": [
    {
      "name": "Sketchfab_Scene",
      "nodes": [
        0
      ]
    }
  ]
}
